<svg width="82" height="64" fill="none" xmlns="http://www.w3.org/2000/svg"><path d="M63 26v12.733c0 11.55-9.212 21.137-20.75 21.265a20.928 20.928 0 01-15.1-6.148C21.698 48.083 15.538 34 15.538 34a4.001 4.001 0 011.632-5.558c1.915-1 4.275-.21 5.35 1.655l5.25 9.11a1.523 1.523 0 001.5.773h.03a2.047 2.047 0 001.7-2.045V8a3.998 3.998 0 014.193-4C37.345 4.1 39 5.955 39 8.107V26a2 2 0 002.133 2A2.042 2.042 0 0043 25.937V22a3.998 3.998 0 014.193-4c2.152.1 3.807 1.955 3.807 4.108V28a2 2 0 002.133 2A2.042 2.042 0 0055 27.937v-1.82c0-2.152 1.655-4 3.808-4.107A4 4 0 0163 26z" fill="#fff"/><path opacity=".5" fill-rule="evenodd" clip-rule="evenodd" d="M81.077 16L69.54 6v4.615h-10v10.77h10V26l11.538-10zM0 16L11.54 6v4.615h10v10.77h-10V26L0 16z" fill="#fff"/></svg>